/* XPM */
static char *result[] = {
/* columns rows colors chars-per-pixel */
"64 64 124 2 ",
"   c #050507",
".  c #070709",
"X  c #080709",
"o  c #0B0B0C",
"O  c #0F100E",
"+  c #10100F",
"@  c #0E0E12",
"#  c #0F0F1E",
"$  c #100F14",
"%  c #100F1A",
"&  c #131313",
"*  c #181716",
"=  c #191816",
"-  c #14141B",
";  c #18171D",
":  c #1B1A1C",
">  c #0A0A23",
",  c #0C0C2C",
"<  c #100F27",
"1  c #100F28",
"2  c #151423",
"3  c #181721",
"4  c #1C1C23",
"5  c #13132B",
"6  c #19172E",
"7  c #1D1C2A",
"8  c #0D0E33",
"9  c #0E0F3A",
"0  c #0F1035",
"q  c #0F103B",
"w  c #131334",
"e  c #1C1B34",
"r  c #11133C",
"t  c #17183E",
"y  c #1B1B3C",
"u  c #201F24",
"i  c #201F29",
"p  c #201F33",
"a  c #212026",
"s  c #23222B",
"d  c #28262D",
"f  c #29292E",
"g  c #252433",
"h  c #282734",
"j  c #2B2A34",
"k  c #22223C",
"l  c #2B2A3A",
"z  c #302F35",
"x  c #302F3C",
"c  c #313036",
"v  c #36353C",
"b  c #38373E",
"n  c #131443",
"m  c #171846",
"M  c #191A46",
"N  c #14154B",
"B  c #16194B",
"V  c #1B1B4C",
"C  c #151651",
"Z  c #171854",
"A  c #1A1C54",
"S  c #171859",
"D  c #1B1D5B",
"F  c #201F45",
"G  c #1E2054",
"H  c #1D205D",
"J  c #222246",
"K  c #2B2B46",
"L  c #22234E",
"P  c #29294C",
"I  c #333241",
"U  c #383740",
"Y  c #3A3942",
"T  c #3C3B4A",
"R  c #222254",
"E  c #292B55",
"W  c #23245B",
"Q  c #292A5D",
"!  c #3F3E50",
"~  c #1D1D64",
"^  c #1E1F69",
"/  c #1E2263",
"(  c #1F206C",
")  c #222464",
"_  c #262966",
"`  c #2A2A64",
"'  c #22256C",
"]  c #26286D",
"[  c #2C2D6C",
"{  c #30306F",
"}  c #242573",
"|  c #252A73",
" . c #2B2C73",
".. c #262778",
"X. c #272C79",
"o. c #292D7C",
"O. c #2E3177",
"+. c #2E317B",
"@. c #31347E",
"#. c #413F4E",
"$. c #43414F",
"%. c #434354",
"&. c #484756",
"*. c #454458",
"=. c #4B4A5B",
"-. c #4B4A60",
";. c #504F66",
":. c #525166",
">. c #55546C",
",. c #5B5A73",
"<. c #5E5D78",
"1. c #61607A",
"2. c #2A2F80",
"3. c #2C3184",
"4. c #2F3489",
"5. c #333685",
"6. c #31368C",
"7. c #35398C",
"8. c #323790",
"9. c #353A93",
"0. c #393D95",
"q. c #393F99",
"w. c #3D429D",
"e. c None",
/* pixels */
"e.e.e.e.e.e.e.e.e.e.e.e.e.e.e.e.e.e.e.e.e.e.e.e.e.e.e.7.w.5.5.5.5.@.@.@.O.e.e.e.e.e.e.e.e.e.e.e.e.e.e.e.e.e.e.e.e.e.e.e.e.e.e.e.",
"e.e.e.e.e.e.e.e.e.e.e.e.e.e.e.e.e.e.e.e.e.e.e.w.0.9.7.7.5.5.+.2.+.+.X.O. . .[ O.{ e.e.e.e.e.e.e.e.e.e.e.e.e.e.e.e.e.e.e.e.e.e.e.",
"e.e.e.e.e.e.e.e.e.e.e.e.e.e.e.e.e.e.e.e.w.w.9.9.7.6.6.3.2.3.+.X.X.X.| | | ] _ ' _ _ _ _ e.e.e.e.e.e.e.e.e.e.e.e.e.e.e.e.e.e.e.e.",
"e.e.e.e.e.e.e.e.e.e.e.e.e.e.e.e.e.w.w.w.0.8.7.4.4.3.3.3.2.o.o.X.X.| | _ / _ ( / W / H H Q Q e.e.e.e.e.e.e.e.e.e.e.e.e.e.e.e.e.e.",
"e.e.e.e.e.e.e.e.e.e.e.e.e.e.e.e.w.w.9.9.6.6.4.4.3.3.3.o.o.X.| | | ] ] ( / _ ( / H H A H G G G E e.e.e.e.e.e.e.e.e.e.e.e.e.e.e.e.",
"e.e.e.e.e.e.e.e.e.e.e.e.e.e.w.w.9.w.8.8.6.4.4.3.2.+.o.X.X.| | | | ] ( / / / H H H H A A A B A B G R e.e.e.e.e.e.e.e.e.e.e.e.e.e.",
"e.e.e.e.e.e.e.e.e.e.e.e.e.w.q.0.9.6.6.6.4.3.3.2.2.o.X.X.| | | | / / / / H H H H A A A A B B B B V V L e.e.e.e.e.e.e.e.e.e.e.e.e.",
"e.e.e.e.e.e.e.e.e.e.e.w.w.q.9.8.6.6.6.4.3.3.2.2.o.X.X.| | } / ( ( / / / H H H G A A B B B B m m m m m V e.e.e.e.e.e.e.e.e.e.e.e.",
"e.e.e.e.e.e.e.e.e.e.w.w.q.q.8.6.6.4.3.3.3.2.2.X.X.| | | } ' ' ) _ / H H H G Z G B Z B B m n n n n t m n V F e.e.e.e.e.e.e.e.e.e.",
"e.e.e.e.e.e.e.e.e.w.w.q.8.8.8.4.4.4.3.3.2.X.X.X.| | | ( ) E R P G L L G H G Z Z B B B n n n n r r r r r n V G e.e.e.e.e.e.e.e.e.",
"e.e.e.e.e.e.e.e.w.q.9.8.8.4.4.4.4.2.2.o.X.X.X.| _ E l h d s s a 7 a a a s e y m B m n n n r q q q q q r n n M F e.e.e.e.e.e.e.e.",
"e.e.e.e.e.e.e.w.w.q.8.8.6.4.4.3.3.2.o.o.X.o.Q l h s a u u : : : : : ; ; : : 4 4 7 t n n n r 0 0 0 0 0 q q r n N e.e.e.e.e.e.e.e.",
"e.e.e.e.e.e.e.w.9.8.8.4.4.4.2.2.2.+.X.X.Q l f s a u : : = = = * = = - = & - - - - ; 4 w r 0 0 0 8 8 8 0 9 q n N A e.e.e.e.e.e.e.",
"e.e.e.e.e.e.w.9.8.6.4.4.4.2.3.2.+.X.| K f s a u : : : : * * * * & & & & & O & @ % & - 2 7 0 0 8 8 8 8 0 8 9 q n N A e.e.e.e.e.e.",
"e.e.e.e.e.w.9.8.8.4.4.2.2.2.2.X.X.` j d a a : : = = = = * & * & & & & O O & @ @ O @ @ @ - 3 5 8 , 8 , 8 8 9 9 n m C D e.e.e.e.e.",
"e.e.e.e.e.w.8.6.4.4.4.2.2.2.2...E h s a u : : : = = = = * * + & & O O O O O O O O O O @ @ % - 5 , , , 8 8 9 q n n N A e.e.e.e.e.",
"e.e.e.e.0.9.6.4.3.3.3.2.o.o.X.E j a a : : = : = * * * * + & & & & + O O O O O o o o o o o @ @ > 1 , , 8 8 8 9 n n N C ~ e.e.e.e.",
"e.e.e.0.9.6.4.3.3.2.2.o.X.X.Q h a a a : = = = = * * & & & & + + O @ o O o o o o o o o o o o @ @ 2 1 , 8 8 9 9 n n N C S e.e.e.e.",
"e.e.e.0.6.4.3.3.2.2.o.X.| _ g a a : : = = = = = & & & & & + & + O O o O o o o o o o o . o X o # $ ; , , 8 8 9 q n N C S ~ e.e.e.",
"e.e.e.7.4.3.3.+.o.o.X.| | l s a : : = = = & = & & * + & + + + + & o O o O o o o X . X X X X o X @ % 2 8 8 9 9 n n N C S ~ e.e.e.",
"e.e.7.4.3.3.+.o.| | | | P g a : = = = = = = O = & & + + + + + O O @ o @ o o o o X X X . . X X # @ @ - 5 8 9 9 q n N N S D ^ e.e.",
"e.e.7.4.3.o.o.X.| | | _ h a : : = = = = & = = O + & + * * & & & & & ; & O o o X X X . . X . X X @ @ $ 3 1 9 9 n n N C S D ^ e.e.",
"e.7.4.+.o.o.X.| | | ( P a a : = = = = + + O O O + + + d v v v v v v $.! @ @ o X X . . . X X X X o @ # - 5 9 q q n N N S D ~ e.e.",
"e.7.4.o.o.X.| | | | _ g a : = = + = + = + = O O + + + z v v v v v v Y :.$ @ o X . . .   X X o o o @ @ % 3 r q r n N C S ~ ~ ' e.",
"e.5.+.X.X.| | ] | | L s 4 = = = = = + = O O O O O O + v v v v v v v b ,.& @ @ X X X X . . . . o o @ $ % ; w 9 n n N C D D ~ ( e.",
"e.5.o.X.| | ( ] / / k a : = & & + + O O O O O O O O * v v v b v v v b >.s @ @ o X X . X X X o o o @ % - ; i q n N N C D ~ ~ ' e.",
"@.+. .| | _ ( ( _ W s 4 = = = & = O O = O O O O O O : b v b v b b b b =.I @ o o X X . . X X X o $ $ % - - i q r n B A D D ^ ( e.",
"+.O.| | | | / / / G a : = & & & O O O O O O O O o O d v v b b b b b b %.%.# @ X X . . . . X X # @ % - - 2 3 t n N N A D ~ ^ } } ",
"+. .| _ ' / / / / J 7 = = & & O O O O O o o O o o O z v v v b b b b U Y >.$ @ o X X X X X X o @ $ & ; ; 3 3 y n C F A H / ^ ( ..",
"+. .| ( / ( / / H k 4 = & & & O O O O O o O o o o O v v v v b b b b b b ,.- @ @ X X . . X X o @ $ - 3 3 i 3 p n V G D H ) ) ' ..",
"O.] _ _ / / H H H p 4 = & & O O O O O O O o o o o * v b v b b b b b U U -.g @ @ X X . . o o @ @ % 3 4 i i i p n F S W W ) ] } ..",
"O.] / / / / H G A p ; & & O O O O O O O o o o o o : v v b b b b b b v U =.T @ @ X . X . X o @ $ ; 3 4 i p p p F G G W ) ) ] } ..",
"O._ / H H H H G A i ; & + O O + O o O o X o o o o f v b v &.b b b b b b T =.& @ X . X X o @ @ - ; 7 i g g p p V G R W ` _ ] ....",
"[ / / H H G Z A Z p ; & + O O o o o o o X o . . o c v v Y ,.v U b b b b b ,.& @ @ X . X . @ @ % 3 i g g g g k V G Q _ ` [ ]  .X.",
"_ / H H Z Z A Z B p ; $ + + O o o o o   o X o o & v b b =.%.d b b b b v Y >.7 @ X X X X X @ @ - 7 i g l h g k L R Q _ ` [  .....",
"[ / G H G B Z B V e ; & $ o O o o o o o X X X X 4 v v v ,.s : b b b b b b =.I @ @ o X X @ @ # 2 4 g l l l g k L R Q ` [ { { ..o.",
"` H G G A B B m m y ; & o o o o o o   X . . X o d v v b <.4 4 v v b v b b $.*.@ o o . o @ @ % 3 a g l x l g J G Q Q ` { {  ...o.",
"Q H G A B B m N n r 3 & & o o o   o o   . . X o z v b b U U b b b v U v b U >.& @ o o X o @ - 3 s g l x l g L R Q ` ` {  . ...o.",
"e.G A V B m n n n r 3 & @ o o o o o     . . X O v v b &.Y U v U v b v b b b >.4 @ o o o @ @ - 4 s g l x g p L G Q ` { {  . .o.e.",
"e.G A m m m n r r r 6 - o o o o     o   . . X ; v v v 1.c U #.j v v v v b b =.l o o o @ @ @ - 3 s p g g g J L G Q ` { {  .O.o.e.",
"e.E V M m r r r 0 0 w - @ o o X X           . = 4 u a x 4 T ; @ 4 a a a a a g s @ o o o @ @ - 4 i p p p p F F W Q ` [ {  .....e.",
"e.G M m m r r r 0 0 0 4 $ o o X o .     o   . . o o o @ @ $ o o o o o o o o o o o o X o @ % - 4 i i i p p F R W ` ` [ [  ...+.e.",
"e.e.J m r r r 0 0 0 8 2 - @ o X       o     .   . X X X o o o o . . o . X o X X X X o o @ @ - 4 u i i i F V R W Q ` [  . . .e.e.",
"e.e.J m t w w 0 0 , , , 3 @ o X X X .     .     . . X   X . . . . . . .         X X o o $ & % - ; i i p n V V W ` ` [ } ..o.e.e.",
"e.e.J t r w 0 8 , , , , , - @ o .   o                           . .             . X o @ @ # % - 3 u 3 n N Z R W ) _ ] ] ..e.e.e.",
"e.e.e.y w w w , , , , , > 2 $ o o o   . o                                       X X o o o @ & - - 3 p n F V G W ) ) ] } ..e.e.e.",
"e.e.e.k w w , , , , , > > > 2 @ o o     .                                       X X o o @ # # - 2 i q n N V G W ) ) ' }  .e.e.e.",
"e.e.e.e.e w 5 , > , > > > > > - O o o o . .   .                                 X X o @ @ @ $ # 3 r r n M Z A D ) ( } ..e.e.e.e.",
"e.e.e.e.e w 1 , > > > > > , > > % @ o o . . . .                             . . . o o o @ $ # > 9 q r n V Z D D / ^ } e.e.e.e.e.",
"e.e.e.e.e.e 5 , 1 > > , > > > > > # $ o o X . .   .                         . . X o o @ @ % < 8 9 q n M N Z A ~ / ( } e.e.e.e.e.",
"e.e.e.e.e.e.6 > > , > > , > > > > > > @ o X X X . .                         . o X @ @ @ - < 8 8 9 q n N N A S ~ ^ } e.e.e.e.e.e.",
"e.e.e.e.e.e.e 5 5 > > > > > > > > > > > < $ o o . . . . .             .   . . o X @ @ 2 , , 8 8 9 n n N C S S ~ ^ e.e.e.e.e.e.e.",
"e.e.e.e.e.e.e.e 5 > 2 > > > > > > > > > > > # X o o . X . X . .   . . . X o o @ @ 2 > , , 8 8 8 q n N N C S ~ ~ ' e.e.e.e.e.e.e.",
"e.e.e.e.e.e.e.e.6 5 , > > > > > > > > > > > > > % % o o @ o X X . X o o X o # > > > > , , 8 8 n n n N N S S ~ ^ e.e.e.e.e.e.e.e.",
"e.e.e.e.e.e.e.e.e.6 5 > > > > > > > > > > > > # > > > # > # @ # # @ # # > > > > > > , , , 8 8 9 n n N C S ~ ^ e.e.e.e.e.e.e.e.e.",
"e.e.e.e.e.e.e.e.e.e.w 1 2 , > > > > > > > > > > > > > > > > > > > > # > > > > > > , , , 8 8 9 n n n N S S S e.e.e.e.e.e.e.e.e.e.",
"e.e.e.e.e.e.e.e.e.e.e.6 5 > > > > > > > > > > > # > # > > # > # > > > > # > > > > , , 8 8 9 9 n n N S S D e.e.e.e.e.e.e.e.e.e.e.",
"e.e.e.e.e.e.e.e.e.e.e.e.6 5 2 < < > > > > > # > > > > > > > > > > # # > > > > > > , , 8 8 9 n n N N S e.e.e.e.e.e.e.e.e.e.e.e.e.",
"e.e.e.e.e.e.e.e.e.e.e.e.e.e.5 < > > > > > > > > > > > > > > > > # > > > > > > > , , 8 8 9 9 n N C S e.e.e.e.e.e.e.e.e.e.e.e.e.e.",
"e.e.e.e.e.e.e.e.e.e.e.e.e.e.e.6 2 2 > > > > # > > # # > > # # > > # > # > > > , , , 8 0 n n n N C e.e.e.e.e.e.e.e.e.e.e.e.e.e.e.",
"e.e.e.e.e.e.e.e.e.e.e.e.e.e.e.e.e.6 5 < > > > > > > # > > > > # # > > > , > , , 1 9 9 q n N B e.e.e.e.e.e.e.e.e.e.e.e.e.e.e.e.e.",
"e.e.e.e.e.e.e.e.e.e.e.e.e.e.e.e.e.e.e.6 5 1 2 > > > > > > > > > > > > > > , , , 8 0 q n m e.e.e.e.e.e.e.e.e.e.e.e.e.e.e.e.e.e.e.",
"e.e.e.e.e.e.e.e.e.e.e.e.e.e.e.e.e.e.e.e.e.e.5 2 2 > > > > > > > > > > , , , 8 8 r t e.e.e.e.e.e.e.e.e.e.e.e.e.e.e.e.e.e.e.e.e.e.",
"e.e.e.e.e.e.e.e.e.e.e.e.e.e.e.e.e.e.e.e.e.e.e.e.e.e.5 , 5 5 6 1 5 5 w w e r e.e.e.e.e.e.e.e.e.e.e.e.e.e.e.e.e.e.e.e.e.e.e.e.e.e."
};
