/* XPM */
static char *result[] = {
/* columns rows colors chars-per-pixel */
"64 64 216 2 ",
"   c #000000",
".  c #03020C",
"X  c #0A0A0B",
"o  c #080612",
"O  c #080617",
"+  c #1B1B1B",
"@  c #141414",
"#  c #0C0726",
"$  c #110C29",
"%  c #18132B",
"&  c #0D053D",
"*  c #0C0635",
"=  c #130D35",
"-  c #181236",
";  c #272728",
":  c #38373A",
">  c #59443D",
",  c #0F0641",
"<  c #100742",
"1  c #130946",
"2  c #160B4B",
"3  c #180D4F",
"4  c #1A114C",
"5  c #191142",
"6  c #190E52",
"7  c #1C1155",
"8  c #1E1359",
"9  c #221A49",
"0  c #21155D",
"q  c #271D57",
"w  c #2A2258",
"e  c #352D5B",
"r  c #231761",
"t  c #251964",
"y  c #271B68",
"u  c #291D6C",
"i  c #2B1F65",
"p  c #2C1F70",
"a  c #2D226B",
"s  c #342A67",
"d  c #3D3568",
"f  c #2E2174",
"g  c #302376",
"h  c #33257B",
"j  c #372B76",
"k  c #3E3377",
"l  c #473D75",
"z  c #483D6B",
"x  c #464649",
"c  c #594547",
"v  c #4F4D5A",
"b  c #584754",
"n  c #56555A",
"m  c #624C45",
"M  c #6A545D",
"N  c #755B55",
"B  c #6B534F",
"V  c #7E645A",
"C  c #7B6157",
"Z  c #464163",
"A  c #494369",
"S  c #544A6D",
"D  c #5A5768",
"F  c #4B4373",
"G  c #4F4777",
"H  c #524B77",
"J  c #595377",
"K  c #625B7A",
"L  c #6B5971",
"P  c #656177",
"I  c #747475",
"U  c #70656E",
"Y  c #80665C",
"T  c #83695F",
"R  c #866D64",
"E  c #8D7369",
"W  c #947C74",
"Q  c #907570",
"!  c #9B837A",
"~  c #362781",
"^  c #372882",
"/  c #392A85",
"(  c #3D2D8C",
")  c #3E3089",
"_  c #3F2F91",
"`  c #3F3090",
"'  c #453886",
"]  c #402F90",
"[  c #413193",
"{  c #45359A",
"}  c #48379E",
"|  c #49389E",
" . c #47389E",
".. c #4C3AA3",
"X. c #4F3DA9",
"o. c #4937A1",
"O. c #513EAB",
"+. c #534887",
"@. c #5B5384",
"#. c #564699",
"$. c #5F5594",
"%. c #645B88",
"&. c #635895",
"*. c #6E688C",
"=. c #797498",
"-. c #746691",
";. c #5341AE",
":. c #5B49AD",
">. c #5542B3",
",. c #5A46BB",
"<. c #5C49BD",
"1. c #5946B6",
"2. c #5E50A2",
"3. c #6757B5",
"4. c #7A69A2",
"5. c #7466B8",
"6. c #7D74A9",
"7. c #5E4AC2",
"8. c #604CC5",
"9. c #634FCA",
"0. c #6551CD",
"q. c #6A55C9",
"w. c #6753D1",
"e. c #6954D4",
"r. c #6C57D9",
"t. c #6E58DC",
"y. c #6E59D5",
"u. c #725BD8",
"i. c #7968C6",
"p. c #7A64D6",
"a. c #735CE4",
"s. c #755EE9",
"d. c #7961EE",
"f. c #7A63E7",
"g. c #7D65F4",
"h. c #7F68F8",
"j. c #8F7693",
"k. c #8D75A8",
"l. c #826BDB",
"z. c #8676D1",
"x. c #846BE4",
"c. c #8D73EB",
"v. c #846CFB",
"b. c #846BF9",
"n. c #8C73FF",
"m. c #9176FE",
"M. c #947AFF",
"N. c #9A7EFF",
"B. c #9479F2",
"V. c #927AE8",
"C. c #858586",
"Z. c #908A92",
"A. c #AC9496",
"S. c #A58E86",
"D. c #B7A49C",
"F. c #9B99A3",
"G. c #8E89AB",
"H. c #AA92B0",
"J. c #A7A6AA",
"K. c #B7B6B7",
"L. c #BBA8AD",
"P. c #C5B0B6",
"I. c #CFC2BC",
"U. c #9788CF",
"Y. c #A78FCA",
"T. c #B3AECC",
"R. c #9E81FF",
"E. c #9A84F5",
"W. c #9D86EC",
"Q. c #A385FF",
"!. c #A588FE",
"~. c #AB8DFF",
"^. c #A78AF5",
"/. c #AE90FF",
"(. c #AC96F4",
"). c #B494FE",
"_. c #BC9BFF",
"`. c #B899F8",
"'. c #A991E6",
"]. c #ADA1E5",
"[. c #BBA7FE",
"{. c #B9AFE7",
"}. c #CABEC6",
"|. c #CAB3D6",
" X c #C09FFF",
".X c #C4A2FF",
"XX c #C9A6FF",
"oX c #CCAAFE",
"OX c #C2A7F9",
"+X c #D1AEFF",
"@X c #D3AFF4",
"#X c #CCB9FC",
"$X c #D5B2FF",
"%X c #DAB6FF",
"&X c #DEB9FF",
"*X c #D3BCFF",
"=X c #C6B2EA",
"-X c #E3BDFF",
";X c #D4CCD5",
":X c #E3CFDA",
">X c #D5CAE6",
",X c #D7C5FC",
"<X c #CFC2E5",
"1X c #EBC4FF",
"2X c #E8C4FB",
"3X c #F3CCFF",
"4X c #E5D2FA",
"5X c #FAD4FF",
"6X c #F8D8FD",
"7X c #E8D7E7",
"8X c #F8E6FE",
"9X c #FBF4FD",
"0X c #FFFEFF",
"qX c #F7F6F6",
"wX c #E3E2E3",
"eX c None",
/* pixels */
"eXeXeXeXeXeXeXeXeXeXeXeXeXeXeXeXeXeXeXeXeXeXeXeXeXeXeXeXeXeXeXeXeXeXeXeXeXeXeXeXeXeXeXeXeXeXeXeXeXeXeXeXeXeXeXeXeXeXeXeXeXeXeXeX",
"eXeXeXeXeXeXeXeXeXeXeXeXeXeXeXeXeXeXeXeXeXeXeXeXeXeXeXeXeXeXeXeXeXeXeXeXeXeXeXeXeXeXeXeXeXeXeXeXeXeXeXeXeXeXeXeXeXeXeXeXeXeXeXeX",
"eXeXeXeXeXeXeXeXeXeXeXeXeXeXeXeXeXeXeXeXeXeXeXeXeXeXH z w , , , , , < < 3 d G %.eXeXeXeXeXeXeXeXeXeXeXeXeXeXeXeXeXeXeXeXeXeXeXeX",
"eXeXeXeXeXeXeXeXeXeXeXeXeXeXeXeXeXeXeXeXeXeXeXF 4 & & & , 1 1 1 2 2 3 3 6 7 7 8 q k &.eXeXeXeXeXeXeXeXeXeXeXeXeXeXeXeXeXeXeXeXeX",
"eXeXeXeXeXeXeXeXeXeXeXeXeXeXeXeXeXeXeXeX%.q , , , < < 1 2 2 3 3 3 7 7 8 8 r r y a u f f &.eXeXeXeXeXeXeXeXeXeXeXeXeXeXeXeXeXeXeX",
"eXeXeXeXeXeXeXeXeXeXeXeXeXeXeXeXeXeX*.w & , , 1 1 1 2 3 3 6 6 8 8 r r t a u f f h h ^ / ) ) 3.eXeXeXeXeXeXeXeXeXeXeXeXeXeXeXeXeX",
"eXeXeXeXeXeXeXeXeXeXeXeXeXeXeXeXeXd < < < < 1 2 3 2 6 7 8 8 r r y u f f h ^ / ( ` ` [  .....;.;.U.eXeXeXeXeXeXeXeXeXeXeXeXeXeXeX",
"eXeXeXeXeXeXeXeXeXeXeXeXeXeXeX=.4 < < 1 1 2 3 6 6 8 8 0 r t u p g h ~ ( ` ` {  ...;.>.>.1.1.,.,.,.i.eXeXeXeXeXeXeXeXeXeXeXeXeXeX",
"eXeXeXeXeXeXeXeXeXeXeXeXeXeXJ , < 1 1 2 2 3 6 7 8 0 t y p f h ~ ( ` [  ...X.>.1.,.7.9.9.w.w.w.w.w.0.y.{.eXeXeXeXeXeXeXeXeXeXeXeX",
"eXeXeXeXeXeXeXeXeXeXeXeXeXF < 1 1 1 3 3 6 7 8 r t u u g h ~ ( _ { ..;.1.,.7.0.w.r.t.a.s.d.d.d.d.f.a.r.y.].eXeXeXeXeXeXeXeXeXeXeX",
"eXeXeXeXeXeXeXeXeXeXeXeXz < 1 1 1 3 6 6 8 8 r y u f h / ( [ } X.>.<.7.0.y.i.5.z.E.E.h.v.h.v.v.h.h.g.d.a.t.].eXeXeXeXeXeXeXeXeXeX",
"eXeXeXeXeXeXeXeXeXeXeXF 1 < 2 2 3 6 8 8 r t u p h ^ ( [ o.O.1.7.0.y.t.a.e.0.3.<.#.*.Z.{.[.M.M.n.n.v.h.d.a.y.{.eXeXeXeXeXeXeXeXeX",
"eXeXeXeXeXeXeXeXeXeX@.< 1 2 2 2 6 8 8 r t p p ~ ( [ } X.1.7.9.r.a.d.=XV.n.M.B.x.8.;.| w c K.#XR.m.m.v.h.a.e.q.eXeXeXeXeXeXeXeXeX",
"eXeXeXeXeXeXeXeXeX=.1 1 2 2 3 6 8 8 r u p h ~ ( [ ..O.<.9.r.s.g.v.z.L.k.R./.[.OX`.E.u.{ f o x T.E.m.n.h.d.e.8.3.eXeXeXeXeXeXeXeX",
"eXeXeXeXeXeXeXeXeXw 1 2 2 6 7 8 8 t u p ~ ~ _ { X.,.9.e.a.g.v.n.b.}.R V '.Q.R./.=X|..X^.1.j O X C.U.n.h.d.w.7.;.5.eXeXeXeXeXeXeX",
"eXeXeXeXeXeXeXeXG 1 2 2 6 6 7 8 r u p ~ ~ _ o.O.7.0.t.d.v.n.M.R.'.S.V V W XX.X!.B.[.P.OX(.<.j . . e u.h.a.w.<.;. .Y.eXeXeXeXeXeX",
"eXeXeXeXeXeXeX*.2 1 2 6 6 8 0 r y p h ~ _ ..O.7.w.a.g.n.M.Q.~.W.}.Y Y Y Y |.&X-XoXx. XA.XX)...4     % d.a.0.1...` #.eXeXeXeXeXeX",
"eXeXeXeXeXeXeXz 1 2 2 6 6 8 0 y p h ~ _ ..O.7.r.s.b.m.N.!.).`.=XQ Y Y Y Y Q -X-X-XoXl.Y.A..XV.] o     k t.7.>. .` h 6.eXeXeXeXeX",
"eXeXeXeXeXeXK 1 2 2 6 7 8 r t p p ~ _ o.O.7.r.s.v.m.Q.~._..X(.P.Y Y Y Y Y Y P.3X3X-X`.l.W  X).O.e X   . <.<.;.[ / g k eXeXeXeXeX",
"eXeXeXeXeXeXA 1 2 6 6 7 0 r u p ~ ( { X.7.w.s.v.M.R.)._.XX X=XE Y Y Y Y Y Y R 3X5X3X-Xq.L.k. Xu.$.x     s >.| ` ~ f y =.eXeXeXeX",
"eXeXeXeXeXP 1 2 3 6 7 8 r y p h / { O.O.0.s.v.n.Q./._.oX%X{.A.Y Y Y Y Y Y Y Y D.5X3X3Xl.L.j./.c.$.n     % ;.{ / h u y l eXeXeXeX",
"eXeXeXeXeXJ 1 2 6 6 7 0 r u f ~ ] X.O.9.t.h.n.N.)._.+X&XXX;XT Y Y Y Y Y Y Y Y Y 7X5X3Xl.}.U /.c.&.n       { [ ^ p u r 8 eXeXeXeX",
"eXeXeXeXeXd 2 3 6 7 8 r y p h / { X.<.e.s.n.N.~._.oX&X2X#X! Y Y Y Y Y Y Y Y Y Y S.3X-Xl.P.N ).c.4.:       [ ) h p y r 6 &.eXeXeX",
"eXeXeXeXD 2 3 3 6 7 r r p p ~ ( o.O.0.s.v.M.Q._.oX&X1X$XP.Y Y Y Y Y Y Y Y Y Y Y Y :X3XV.D.M ~.l.G.;     . [ / g p r 8 7 F eXeXeX",
"eXeXeXeXD 1 3 6 6 8 r y a h ( { O.7.t.b.m.N.).XX%X-X-X2XE V Y Y Y Y Y Y Y Y Y Y Y ! -X].W M /.y.J..     O ( ~ p y r 8 7 8 eXeXeX",
"eXeXeXeXG 2 3 6 8 8 r y f h ( ..O.e.a.v.N.~. X+X-X3X$XD.Y Y Y Y Y Y Y Y Y Y Y Y Y Y H.|.R L ~.<.J.      = ( ~ p y 0 8 6 3 eXeXeX",
"eXeXeXX F 3 3 6 8 0 t a g ] [ X.l.r.b.v.N.)..X-X3X-X;XT Y Y Y Y Y Y Y Y Y Y Y Y Y Y ! ! N k.N.5.I .     9 / p p t r 8 6 6 *.eXeX",
"eXeXeX; s 2 3 7 8 0 y p h #.} ..z.a.b.m.Q. X+X-X3X,X! Y Y Y Y Y Y Y M Y Y Y Y Y T T T Y b `.B.Y.+     . h / ~ u t 8 8 6 3 @.eXeX",
"eXeXeXn q 3 3 7 8 0 y f f &...[ Y.x.n.N.).XX-X3X$X}.Y Y Y Y Y Y T m z.j.Y Y Y Y Y Y Y m Y._.l.F.      O [ / p u t 0 7 7 6 G eXeX",
"eXeXeXn 2 3 7 7 8 t u f @.l X.) Y.b.M.!. XoX-X-X,XE Y Y Y Y Y Y Y U $XW.Y Y Y Y Y Y N -.+X(.{.;       w [ ~ ~ u r 0 8 7 6 G eXeX",
"eXeXeXn 2 3 3 7 8 t f y =.a ;.h H.c.N.~. X+X-X+XD.Y Y Y Y Y Y V > wX9X!.k.Y Y Y Y C M 2XoX(.C.      o ..[ ~ p u t 0 8 7 7 l eXeX",
"eXeXeXD 2 2 6 7 r y f 8 G.9 >.h -.j.N.)..X%X%X>XR T Y Y Y Y Y C Z.0X9X-XB.R Y Y C c 2X2XoXT.X       j ..{ ~ p p t 0 8 7 6 F eXeX",
"eXeXeXn 2 3 3 8 r y f 8 F.- ,.X.' E Y. XoX%X#XS.Y Y Y Y Y Y V m qX0X0X9X#XD.R N b 3X6X2X>X+       - <...[ ~ p u t 0 8 7 6 G eXeX",
"eXeXeXD 3 3 6 8 0 y f 7 Z.X 1.0.g %.Q |.@X X;XY Y Y Y Y Y Y B K.0X0XqXI.! V m U 8X8X6X:X;       O 8.<...[ ~ g p t 0 8 7 6 ' eXeX",
"eXeXeX: w 3 6 8 r u f 8 @.+ s a.9.h J Y P.:XW Y Y Y Y Y Y Y W 0X:XD.R V B c Y.9X9X8X}.+       . <.e.,..._ ~ f u r 0 8 7 6 @.eXeX",
"eXeXeXX F 2 6 8 r a h y - ;   <.v.q.] +.c B Y Y Y Y Y Y Y Y E E T C m c 4.4X0X0XqXC.            :.e.,..._ ~ g y r 0 7 6 6 %.eXeX",
"eXeXeX  H 4 7 8 t p h h & .   v !.N.B.3.>.#.A b c > > > > > c b S $.U.,X9X0X0XK.;               % 0.1.o._ ~ p y r 8 8 6 6 =.eXeX",
"eXeXeX  S 2 6 8 r p ~ ( 6 #   . I *X XXX`.W.x.f.f.f.l.l.V.E.!.[.*X8X0X0XqXJ.:                     k 1.} ( h p y r 8 7 6 3 eXeXeX",
"eXeXeX  D 2 6 8 t a h ` j < .     ; F.4X4X3X6X4X6X4X8X8XqX0X0X0X0XqXK.U @                         o X.{ ( h p y r 8 7 6 d eXeXeX",
"eXeXeXeX: a 6 8 r f ~ ` ..u 2 .       X c C.J.;X:XwXwXwX;XK.F.I : X             . %                 9 { ( p u t 0 7 6 6 @.eXeXeX",
"eXeXeXeX  H 3 7 t p h ` X.>.y 4 .                                           o s l.:.#               . j / f u r 8 6 3 3 eXeXeXeX",
"eXeXeXeX  P 7 7 t u ~ ` X.7.7.h y x                                   . 9 #.'.-X-Xu.j                 = ~ p y r 8 7 2 a eXeXeXeX",
"eXeXeXeX  : s 7 r u h ` X.<.t.f.2.Z.                            O w #.V.+X3X3X-X-X).} $                 q p t 0 8 6 3 %.eXeXeXeX",
"eXeXeXeXeX  K 7 r p h ` ..,.r.t.T.+               s j s k ' :.p.^.@X3X5X5X3X1X-X+X.X3.i               . O y r 8 6 6 6 eXeXeXeXeX",
"eXeXeXeXeX  x s 8 u h _ ..1.0.5.C.              % `.`. XoX&X3X5X6X6X5X3X1X1X%X+X X).B.~ #                 5 0 8 6 2 J eXeXeXeXeX",
"eXeXeXeXeXeX  K 8 y f (  .1.1.T.@               j.3X5X5X5X5X5X3X3X3X1X-X-X$XXX X).Q.M.O.0                 . 8 6 3 8 eXeXeXeXeXeX",
"eXeXeXeXeXeX  : l r f / { ;.&.C.    .         o @X-X1X1X1X1X1X1X1X-X$X+XXX X_.~.N.N.v.a.0 #                 $ 6 2 %.eXeXeXeXeXeX",
"eXeXeXeXeXeXeX  P t f ~ [ ` e # # $ $ $ - - 5 k.+X+X$X%X%X%X$X$X+XoX.X X_.~.!.N.M.b.b.e.] & O . . . . . . . * 2 s eXeXeXeXeXeXeX",
"eXeXeXeXeXeXeX  X %.u h ( h a ^ `  .>.<.q.q.x.[..XXXXXXXXXXX.X[. X_.).~.!.N.M.v.b.s.r.8.;.f 0 8 3 2 & * * * 2 6 eXeXeXeXeXeXeXeX",
"eXeXeXeXeXeXeXeX  : G g / { X.7.w.d.h.m.R.!.~./.).).).)._.)././.!.!.N.N.m.n.b.g.t.w.7.>...[ ( h f u t 8 6 6 2 *.eXeXeXeXeXeXeXeX",
"eXeXeXeXeXeXeXeXeX  v ' h (  .>.7.e.a.h.n.m.R.R.R.Q.~.!.R.R.R.R.M.m.n.v.b.s.a.e.9.O.;.| [ / h f y r 8 7 6 2 J eXeXeXeXeXeXeXeXeX",
"eXeXeXeXeXeXeXeXeX    D ' ^ ` ..>.7.e.a.d.h.v.n.M.M.M.M.M.m.n.v.b.b.d.s.t.e.7.,.O.X.{ ) ^ h p y t 8 7 3 2 l eXeXeXeXeXeXeXeXeXeX",
"eXeXeXeXeXeXeXeXeXeX    P ' / [ ..;.<.0.r.a.f.g.g.h.h.h.g.g.d.d.a.t.e.9.7.,.;.X.o._ / ~ f u t 0 8 6 3 2 z eXeXeXeXeXeXeXeXeXeXeX",
"eXeXeXeXeXeXeXeXeXeXeX    D +./ [  .;.1.7.7.w.e.r.r.r.r.y.e.w.0.8.<.,.O.X...[ ` ( ~ f p y 0 0 8 6 3 2 H eXeXeXeXeXeXeXeXeXeXeXeX",
"eXeXeXeXeXeXeXeXeXeXeXeX    x &.^ ` [ ..X.>.1.,.<.7.7.7.,.1.1.>.O.....{ _ ( / h g p u t 0 8 7 3 2 4 K eXeXeXeXeXeXeXeXeXeXeXeXeX",
"eXeXeXeXeXeXeXeXeXeXeXeXeX    ; *.) / ` ` { | | ..........o.`  .[ ] ( ^ ~ h p p y r 0 8 8 3 2 2 s P eXeXeXeXeXeXeXeXeXeXeXeXeXeX",
"eXeXeXeXeXeXeXeXeXeXeXeXeXeXeX    D &.h h ( ( ( ` ( ] ( ( / / ^ h h g p p y t r 8 8 8 6 3 2 7 J eXeXeXeXeXeXeXeXeXeXeXeXeXeXeXeX",
"eXeXeXeXeXeXeXeXeXeXeXeXeXeXeXeX    + P @.a f g g h h g g g g u u u y r r 0 0 6 7 6 2 1 4 G n eXeXeXeXeXeXeXeXeXeXeXeXeXeXeXeXeX",
"eXeXeXeXeXeXeXeXeXeXeXeXeXeXeXeXeXeX    + K @.j i y i y y t t t r 0 0 8 8 6 6 2 2 1 e S n eXeXeXeXeXeXeXeXeXeXeXeXeXeXeXeXeXeXeX",
"eXeXeXeXeXeXeXeXeXeXeXeXeXeXeXeXeXeXeXeX.     x D F s 2 1 2 1 2 1 1 1 1 < < 2 z A D ; eXeXeXeXeXeXeXeXeXeXeXeXeXeXeXeXeXeXeXeXeX",
"eXeXeXeXeXeXeXeXeXeXeXeXeXeXeXeXeXeXeXeXeXeX        % n v Z Z Z Z Z Z Z v v x @ eXeXeXeXeXeXeXeXeXeXeXeXeXeXeXeXeXeXeXeXeXeXeXeX",
"eXeXeXeXeXeXeXeXeXeXeXeXeXeXeXeXeXeXeXeXeXeXeXeXeXeX                      eXeXeXeXeXeXeXeXeXeXeXeXeXeXeXeXeXeXeXeXeXeXeXeXeXeXeX",
"eXeXeXeXeXeXeXeXeXeXeXeXeXeXeXeXeXeXeXeXeXeXeXeXeXeXeXeXeXeXeXeXeXeXeXeXeXeXeXeXeXeXeXeXeXeXeXeXeXeXeXeXeXeXeXeXeXeXeXeXeXeXeXeX",
"eXeXeXeXeXeXeXeXeXeXeXeXeXeXeXeXeXeXeXeXeXeXeXeXeXeXeXeXeXeXeXeXeXeXeXeXeXeXeXeXeXeXeXeXeXeXeXeXeXeXeXeXeXeXeXeXeXeXeXeXeXeXeXeX"
};
