/* XPM */
static char *result[] = {
/* columns rows colors chars-per-pixel */
"32 32 91 1 ",
"  c #050507",
". c #070709",
"X c #08070A",
"o c #0B0A0C",
"O c #100F0F",
"+ c #10100F",
"@ c #0E0D12",
"# c #0D0C1E",
"$ c #100F1C",
"% c #131313",
"& c #191816",
"* c #14141B",
"= c #18171B",
"- c #1B1A1B",
"; c #0A0A23",
": c #0C0D2C",
"> c #100F22",
", c #131226",
"< c #181720",
"1 c #1D1C23",
"2 c #13122A",
"3 c #1F1E2B",
"4 c #0D0E34",
"5 c #0F0F3A",
"6 c #0F1137",
"7 c #0F103C",
"8 c #121335",
"9 c #181732",
"0 c #1A1A35",
"q c #11123C",
"w c #1A1B3E",
"e c #201F2B",
"r c #212027",
"t c #24232B",
"y c #242432",
"u c #282736",
"i c #2B2A33",
"p c #2B2B3B",
"a c #313037",
"s c #36353D",
"d c #38373E",
"f c #0F1040",
"g c #131443",
"h c #161844",
"j c #1C1C44",
"k c #141549",
"l c #17194B",
"z c #191A4C",
"x c #161752",
"c c #171855",
"v c #1B1C54",
"b c #1C1E5B",
"n c #1D205B",
"m c #242446",
"M c #21214D",
"N c #363542",
"B c #3A3944",
"V c #3C3B4C",
"C c #212253",
"Z c #282A57",
"A c #22245B",
"S c #292A5C",
"D c #1C1D62",
"F c #1E2261",
"G c #1F2069",
"H c #232565",
"J c #272964",
"K c #292A63",
"L c #22256C",
"P c #24286D",
"I c #2B2C6C",
"U c #242573",
"Y c #252A74",
"T c #2B2C74",
"R c #272C79",
"E c #292D7B",
"W c #2D317D",
"Q c #403F4A",
"! c #444353",
"~ c #484757",
"^ c #2A2F80",
"/ c #2C3184",
"( c #2F3489",
") c #313583",
"_ c #31368C",
"` c #35398D",
"' c #353A92",
"] c #393E97",
"[ c #3A3F9A",
"{ c #3C419C",
"} c None",
/* pixels */
"}}}}}}}}}}}}'`_)WWTT}}}}}}}}}}}}",
"}}}}}}}}}{{'_//ERPPJFFS}}}}}}}}}",
"}}}}}}}{{__(/WRYYGFFnnnnC}}}}}}}",
"}}}}}}{]__/^EYYGGFnnvlhhzz}}}}}}",
"}}}}}['_(/^RYPJnnnncllhgqgh}}}}}",
"}}}}['((/WRJmyt1r-10wgq6qqql}}}}",
"}}}['((^WJpt1-&&&&%%*<66445gz}}}",
"}}['(/^EZy1-&&&&++++o@*2::4fln}}",
"}}'_/ERZt--&&%+%++oooo@@2:45kc}}",
"}'(/ERJt--&&%&++++ooX..@*:55kxD}",
"}_EERYy1&&%%%+&+@@oo..XX@*4fkxD}",
"}/ERPZ1&%&%++-sss!+o..XX@$25kcD}",
")EYYGy=&%++++rssd~*o...o@%,fkcDL",
"WTPGnr&%+++++isddQyo...o@$1qlvDU",
"TPHFn-%+++oo+asdddN@XXX@$=1wzbGU",
"THFnm&%+++oo+ssddBV@XXX@*eewCAHU",
"Innnw*%ooooo1s!ddd!@XXo$<yyjnJIR",
"Hnvxw*+ooo..ts!idd!1oX@$3pymZKIR",
"Anzlh*oo...oadBasdBaoX@=tpyMSITR",
"Czhgq=@oo..os~dNddNVoo@<tpunKITR",
"}zw76,@o...o*<1@%*&=oo@<eywCKIT}",
"}jq62:%X.. ..Xo.....Xo@&eejCKIT}",
"}j82::,o...         Xo#$=9zCHIR}",
"}}8::;;*o. .        Xo@$2gzbGU}}",
"}}02;;;;#X...      .Xo@:7gxbGL}}",
"}}}2:;;;;#@X..    .Xo$>47kxDG}}}",
"}}}},:;;;;;#@oX..Xo@#:44qkcD}}}}",
"}}}}}2;;;;;;;;###;;;;:44gxD}}}}}",
"}}}}}}2:;;;##;#;;;;;::4flc}}}}}}",
"}}}}}}},>:;;;;;;#;;;:4fkx}}}}}}}",
"}}}}}}}}},:;;;;#;;;:4qk}}}}}}}}}",
"}}}}}}}}}}}};;>:::44}}}}}}}}}}}}"
};
