/* XPM */
static char *result[] = {
/* columns rows colors chars-per-pixel */
"32 32 197 2 ",
"   c #000001",
".  c #02020A",
"X  c #0C0C0C",
"o  c #0C091B",
"O  c #090716",
"+  c #141417",
"@  c #0D062F",
"#  c #120E26",
"$  c #140F2D",
"%  c #1C1A28",
"&  c #130A3E",
"*  c #1E1838",
"=  c #242424",
"-  c #242329",
";  c #2C293C",
":  c #2B233E",
">  c #302E3C",
",  c #39383A",
"<  c #100742",
"1  c #130945",
"2  c #160B4B",
"3  c #180E4F",
"4  c #1D144D",
"5  c #190F52",
"6  c #1C1156",
"7  c #1E1359",
"8  c #211B42",
"9  c #21194E",
"0  c #241A55",
"q  c #21155E",
"w  c #281E5A",
"e  c #241A5A",
"r  c #332E4B",
"t  c #39354E",
"y  c #393743",
"u  c #2D245B",
"i  c #2C2555",
"p  c #322A5D",
"a  c #342D55",
"s  c #3A3557",
"d  c #231761",
"f  c #251965",
"g  c #271B69",
"h  c #2A1D6C",
"j  c #2B1F65",
"k  c #2C1F71",
"l  c #352B64",
"z  c #342A66",
"x  c #3D336C",
"c  c #2E2073",
"v  c #362A74",
"b  c #32247A",
"n  c #352778",
"m  c #403C59",
"M  c #453F60",
"N  c #473F75",
"B  c #464548",
"V  c #54525C",
"C  c #6F5854",
"Z  c #755D5B",
"A  c #7A625A",
"S  c #504C63",
"D  c #534D6F",
"F  c #594A7B",
"G  c #55506F",
"H  c #635F69",
"J  c #7D646C",
"K  c #797979",
"L  c #80665C",
"P  c #83695F",
"I  c #846D65",
"U  c #8D746D",
"Y  c #90786F",
"T  c #94787E",
"R  c #98827C",
"E  c #362781",
"W  c #362881",
"Q  c #392A86",
"!  c #3C2C8A",
"~  c #3E3183",
"^  c #3F308A",
"/  c #433589",
"(  c #423294",
")  c #46369B",
"_  c #48379F",
"`  c #4C3A9C",
"'  c #4C3C95",
"]  c #4B3AA4",
"[  c #503EAC",
"{  c #4D4282",
"}  c #544796",
"|  c #6E588E",
" . c #6B5795",
".. c #735F9A",
"X. c #6F6A88",
"o. c #776098",
"O. c #5240AE",
"+. c #5040A6",
"@. c #5542B3",
"#. c #5A46BB",
"$. c #5A48BB",
"%. c #6954AE",
"&. c #7F78A0",
"*. c #7063B2",
"=. c #5E4AC3",
"-. c #634EC5",
";. c #6551CE",
":. c #6C58CB",
">. c #705FC1",
",. c #6954D3",
"<. c #6F59DD",
"1. c #6A54D6",
"2. c #715BDC",
"3. c #7A6CC5",
"4. c #7864CA",
"5. c #7A67D9",
"6. c #735CE4",
"7. c #775FE9",
"8. c #7660E9",
"9. c #7A63EC",
"0. c #897191",
"q. c #8F79B2",
"w. c #8D75A8",
"e. c #8E73DB",
"r. c #927DDD",
"t. c #836AD6",
"y. c #876DE2",
"u. c #8169F3",
"i. c #856CFA",
"p. c #856BF8",
"a. c #8B72FC",
"s. c #9277FE",
"d. c #947AFE",
"f. c #9A7EFF",
"g. c #9A7EF3",
"h. c #8E8E8E",
"j. c #9B8687",
"k. c #9E889A",
"l. c #A99699",
"z. c #A5918A",
"x. c #B09CAA",
"c. c #A68FB8",
"v. c #B19DBB",
"b. c #AC9AAB",
"n. c #B5AEAD",
"m. c #C2A3B2",
"M. c #9885D9",
"N. c #978AC7",
"B. c #A389CE",
"V. c #A794C9",
"C. c #A090DA",
"Z. c #B194D4",
"A. c #BFA9DC",
"S. c #9E83EC",
"D. c #9C80FF",
"F. c #A084E7",
"G. c #BB9DEC",
"H. c #B99AE7",
"J. c #A487FF",
"K. c #AB8CFE",
"L. c #A488F8",
"P. c #AE93FA",
"I. c #B292FF",
"U. c #BD9BFF",
"Y. c #B898F0",
"T. c #C8ADC7",
"R. c #CFB9D1",
"E. c #C6A5D3",
"W. c #C09EFF",
"Q. c #C0AAEE",
"!. c #D1B9E2",
"~. c #C3A1FD",
"^. c #CDAAFF",
"/. c #C9A7FD",
"(. c #D0AEFE",
"). c #CCB2F2",
"_. c #D7B3FE",
"`. c #D9B5FE",
"'. c #DFBBFF",
"]. c #D8BCF7",
"[. c #E3BDFF",
"{. c gray76",
"}. c #DED5DE",
"|. c #DAC7DE",
" X c #DCCDFF",
".X c #DED2F4",
"XX c #E5DDEA",
"oX c #E6C2FE",
"OX c #EBC5FF",
"+X c #EDCCFB",
"@X c #F4CCFF",
"#X c #F7D1FF",
"$X c #F8D3FA",
"%X c #E8E3EB",
"&X c #F1EBEC",
"*X c #FDFDFD",
"=X c None",
/* pixels */
"=X=X=X=X=X=X=X=X=X=X=X=X=X=X=X=X=X=X=X=X=X=X=X=X=X=X=X=X=X=X=X=X",
"=X=X=X=X=X=X=X=X=X=X=X=Xp i 2 < 1 2 e z D =X=X=X=X=X=X=X=X=X=X=X",
"=X=X=X=X=X=X=X=X=X=X0 1 < 1 2 5 q q f h c b } =X=X=X=X=X=X=X=X=X",
"=X=X=X=X=X=X=X=Xu 1 < 2 5 7 d g h b Q ( _ +.O.@.4.=X=X=X=X=X=X=X",
"=X=X=X=X=X=X=X9 1 2 3 7 d h b Q ( ] @.=.,.1.<.<.<.5.=X=X=X=X=X=X",
"=X=X=X=X=X=X4 1 3 6 q g n Q ) O.-.1.,.*.3.M.D.a.i.9.5.=X=X=X=X=X",
"=X=X=X=X=X0 2 3 6 d k E ( O.;.6.9.V.D.L.t.} S N.s.i.<.4.=X=X=X=X",
"=X=X=X=Xp 2 5 6 d c Q ) #.<.9.s.V.P Z.K.G.G.$.# G 9.<.$.*.=X=X=X",
"=X=X=X=X1 3 6 d k E ] =.6.a.J.P.T L T [.~.B.H.` . z ,.+.^ =X=X=X",
"=X=X=Xp 3 5 q h E ] =.6.s.I.~.v.L P P T.@XF.c.e.t   +._ b { =X=X",
"=X=X=X2 5 7 f b ^ @.6.a.I.^.).U L L L U $XH.k.J.F   u ! c h =X=X",
"=X=Xa 3 6 7 k Q [ ,.i.K.^.[.l.L L L L L m.G.j.g.H   0 W h 7 =X=X",
"=X=Xp 2 6 f b ^ #.7.f.W.[.!.P L L L L L I E.J y.V   0 b f 6 x =X",
"=X=Xu 3 7 h ~ _ 5.i.I.`.OXj.L L L A L L L Y 0.r.=   n c d 6 l =X",
"=X=X3 6 q h { ) r.f.W.[.T.A L L A B.L L A Z G.&.  o ! k d 6 l =X",
"=Xy 3 6 d h F ) q.J.^.].Y L L L n. X0.L Z E.Q.=   v ! c d 7 z =X",
"=X, 3 6 f f S #.F V.^.n.L L P J *X&Xl.Z R.+XB   8 @.! k d 6 z =X",
"=X=Xw 5 g h ; / $.F j.P L P A l.z.C 0.%X}.,     -.O.Q k d 5 z =X",
"=X=Xp 6 g W @ + Z.F.4.%.| | o.w.c..X%XK X       u [ Q k q 6 x =X",
"=X=Xa 6 h Q k O X H b.|.%X%X}.{.h.B .   .         / E g 7 6 =X=X",
"=X=Xr 6 g ! [ b *                   * ..e.#       $ b f 7 6 =X=X",
"=X=XX l g Q @.6.X.      O * 8 l  .H.OXoX^.v         0 q 5 x =X=X",
"=X=X=Xs d E [ 3.-       w.'.oX#X$X+X[.^.I.:.o       O 7 6 =X=X=X",
"=X=X=XX x b ( S O O o : `.'.[.'.`.^.U.K.d.9.6 . .     & x =X=X=X",
"=X=X=X=X> v ^ ) $.2.y.K.U.U.W.U.I.J.d.p.6.-.( k 7 6 1 0 =X=X=X=X",
"=X=X=X=X=Xm Q ] =.8.i.s.D.D.D.s.a.u.6.,.@._ Q k q 6 e =X=X=X=X=X",
"=X=X=X=X=X=XS ! ] $.;.6.8.8.6.<.,.-.@.) ! b g q 5 0 =X=X=X=X=X=X",
"=X=X=X=X=X=X=Xt / ^ ] [ @.@.O.] _ ! Q b h f 7 3 u =X=X=X=X=X=X=X",
"=X=X=X=X=X=X=X=X% S Q W Q W n b c h f q 6 3 0 s =X=X=X=X=X=X=X=X",
"=X=X=X=X=X=X=X=X=X=X- s x j 7 6 5 5 2 0 a r =X=X=X=X=X=X=X=X=X=X",
"=X=X=X=X=X=X=X=X=X=X=X=X=X% ; ; ; ; ; =X=X=X=X=X=X=X=X=X=X=X=X=X",
"=X=X=X=X=X=X=X=X=X=X=X=X=X=X=X=X=X=X=X=X=X=X=X=X=X=X=X=X=X=X=X=X"
};
