/* XPM */
static char *result[] = {
/* columns rows colors chars-per-pixel */
"16 16 192 2 ",
"   c #050506",
".  c #050507",
"X  c #060607",
"o  c #060608",
"O  c #070708",
"+  c #070609",
"@  c #070709",
"#  c #07070A",
"$  c #080809",
"%  c #08080A",
"&  c #09090A",
"*  c #08080B",
"=  c #09090B",
"-  c #0A090B",
";  c #0B0B0B",
":  c #09090C",
">  c #0A0A0D",
",  c #0B0B0D",
"<  c #0B0B0E",
"1  c #0B0B0F",
"2  c #0C0B0D",
"3  c #0C0B0F",
"4  c #0C0C0C",
"5  c #0E0E0D",
"6  c #0E0E0E",
"7  c #0F0F0E",
"8  c #100F0E",
"9  c #0D0C10",
"0  c #0E0E10",
"q  c #0F0F12",
"w  c #0E0E13",
"e  c #0F0F13",
"r  c #0A0A14",
"t  c #0B0B19",
"y  c #0B0B1A",
"u  c #0D0C1B",
"i  c #0E0D1D",
"p  c #100F13",
"a  c #100F16",
"s  c #121210",
"d  c #121211",
"f  c #111112",
"g  c #131313",
"h  c #141412",
"j  c #151513",
"k  c #101015",
"l  c #111016",
"z  c #151514",
"x  c #161615",
"c  c #171715",
"v  c #171616",
"b  c #181816",
"n  c #121118",
"m  c #121218",
"M  c #141319",
"N  c #17161F",
"B  c gray10",
"V  c #1C1B1D",
"C  c #1E1D1F",
"Z  c #080821",
"A  c #0A0A21",
"S  c #080822",
"D  c #080922",
"F  c #090922",
"G  c #090923",
"H  c #090925",
"J  c #090A24",
"K  c #0B0B24",
"L  c #0B0B26",
"P  c #0B0C26",
"I  c #0C0C24",
"U  c #0D0D24",
"Y  c #0F0F25",
"T  c #0C0D26",
"R  c #0F0F26",
"E  c #0B0C29",
"W  c #0B0C2E",
"Q  c #0E0E2D",
"!  c #101025",
"~  c #111027",
"^  c #1E1E24",
"/  c #111028",
"(  c #11122B",
")  c #13132C",
"_  c #10102F",
"`  c #14152D",
"'  c #1F1E2B",
"]  c #18182C",
"[  c #0C0D31",
"{  c #0D0E35",
"}  c #0E0F39",
"|  c #0F103C",
" . c #111131",
".. c #151531",
"X. c #161630",
"o. c #101037",
"O. c #1C1B33",
"+. c #1C1C34",
"@. c #111138",
"#. c #11123C",
"$. c #12133C",
"%. c #10103F",
"&. c #12143F",
"*. c #1E1F3D",
"=. c #222226",
"-. c #242327",
";. c #212129",
":. c #23232D",
">. c #22212E",
",. c #27262D",
"<. c #272634",
"1. c #2C2B31",
"2. c #23223C",
"3. c #2D2D38",
"4. c #37363D",
"5. c #36353F",
"6. c #38363E",
"7. c #38373E",
"8. c #38373F",
"9. c #121240",
"0. c #161745",
"q. c #161846",
"w. c #1B1C41",
"e. c #121348",
"r. c #14164D",
"t. c #15164F",
"y. c #151848",
"u. c #1B1C48",
"i. c #1B1C4B",
"p. c #18184F",
"a. c #1A1B4E",
"s. c #1F1F4C",
"d. c #151650",
"f. c #181850",
"g. c #1C1C52",
"h. c #191A57",
"j. c #1A1D55",
"k. c #1E1E56",
"l. c #191A5D",
"z. c #1E2055",
"x. c #1D215F",
"c. c #212243",
"v. c #242343",
"b. c #212249",
"n. c #373641",
"m. c #393841",
"M. c #3B3A45",
"N. c #3E3C47",
"B. c #252757",
"V. c #272957",
"C. c #26265E",
"Z. c #282A5B",
"A. c #1C1D62",
"S. c #1E2262",
"D. c #1F2067",
"F. c #222563",
"G. c #242664",
"H. c #2C2C65",
"J. c #20206A",
"K. c #212569",
"L. c #24256A",
"P. c #23276F",
"I. c #24246D",
"U. c #25296B",
"Y. c #272A6E",
"T. c #272A6F",
"R. c #2A2A69",
"E. c #252973",
"W. c #292A73",
"Q. c #292A76",
"!. c #282D75",
"~. c #2B2C76",
"^. c #2A2E78",
"/. c #292D7B",
"(. c #2B2F7A",
"). c #292E7D",
"_. c #292E7E",
"`. c #2A3081",
"'. c #2E3281",
"]. c #2C3184",
"[. c #2D3386",
"{. c #2F358B",
"}. c #313586",
"|. c #303589",
" X c #32368A",
".X c #31368D",
"XX c #333991",
"oX c #363B93",
"OX c #373C95",
"+X c #383D97",
"@X c #393F99",
"#X c None",
/* pixels */
"#X#X#X#X#XoX X'.^.Y.G.#X#X#X#X#X",
"#X#X#X@XXX[.).E.K.x.j.a.i.#X#X#X",
"#X#X+X.X].!.B.c.*.w.q.&.#.0.#X#X",
"#XOX{.`.Z.;.B x g f m ( [ | p.#X",
"#X|._.V.C b j d 7 4 - 3 R } t.#X",
"}./.U.^ c h z -.,., @ % a o.r.A.",
"(.P.b.v s 8 V 4.N.M + * k ..f.D.",
"T.S.+.d 5 4 =.6.8.:.# < N O.k.I.",
"F.j.] 6 ; & 1.M.7.3.* w >.2.C.W.",
"z.y.` 2 $ = m.5.4.n.> n <.v.H.~.",
"u.$._ 9 O @ p e 0 q : m ' s.R.Q.",
"#X .E i * X .     . = l X.g.L.#X",
"#X) P J u : X     o 1 ! 9.h.J.#X",
"#X#X/ K G A t r r y L { e.l.#X#X",
"#X#X#X~ I F D S Z H W %.d.#X#X#X",
"#X#X#X#X#XY U I T Q @.#X#X#X#X#X"
};
