/* XPM */
static char *result[] = {
/* columns rows colors chars-per-pixel */
"16 16 165 2 ",
"   c black",
".  c #000004",
"X  c #040406",
"o  c #05040B",
"O  c #0A0814",
"+  c #0D0B16",
"@  c #0E0C14",
"#  c #0B071F",
"$  c #111113",
"%  c #0E092C",
"&  c #110D24",
"*  c #1E1D20",
"=  c #161128",
"-  c #1C182E",
";  c #161035",
":  c #23202E",
">  c #2D2B3A",
",  c #170D49",
"<  c #170C4D",
"1  c #170C4E",
"2  c #180D50",
"3  c #190E50",
"4  c #1E1355",
"5  c #1D1157",
"6  c #1D1258",
"7  c #1E1358",
"8  c #1E1359",
"9  c #1F145B",
"0  c #261E4A",
"q  c #211851",
"w  c #241B52",
"e  c #251C51",
"r  c #241C52",
"t  c #231956",
"y  c #251C55",
"u  c #261E56",
"i  c #281F57",
"p  c #201459",
"a  c #20145B",
"s  c #20145C",
"d  c #221859",
"f  c #271D58",
"g  c #2C264E",
"h  c #292156",
"j  c #292057",
"k  c #2F2950",
"l  c #362F5B",
"z  c #221660",
"x  c #231760",
"c  c #231761",
"v  c #241863",
"b  c #271B64",
"n  c #261A66",
"m  c #271B66",
"M  c #271B67",
"N  c #281B69",
"B  c #281C6A",
"V  c #2E216E",
"C  c #302565",
"Z  c #342B64",
"A  c #30246D",
"S  c #362C69",
"D  c #2E2173",
"F  c #2E2174",
"G  c #2F2275",
"H  c #322573",
"J  c #302276",
"K  c #342875",
"L  c #302278",
"P  c #312378",
"I  c #33257B",
"U  c #34257D",
"Y  c #34257E",
"T  c #35277F",
"R  c #493D5E",
"E  c #463D77",
"W  c gray35",
"Q  c #7F655B",
"!  c #7F655C",
"~  c #80665C",
"^  c #81675D",
"/  c #846961",
"(  c #866D64",
")  c #846A6B",
"_  c #8B756D",
"`  c #8C7179",
"'  c #947C7C",
"]  c #382985",
"[  c #392A85",
"{  c #3E2E8C",
"}  c #3E2F8C",
"|  c #453888",
" . c #4B3E8C",
".. c #413191",
"X. c #413192",
"o. c #423294",
"O. c #4B3A9A",
"+. c #4B3B9E",
"@. c #584E83",
"#. c #56499C",
"$. c #6B5F8E",
"%. c #68559D",
"&. c #725D9F",
"*. c #5341AF",
"=. c #5949AA",
"-. c #5340B0",
";. c #5341B0",
":. c #5442B0",
">. c #5643B6",
",. c #5644B5",
"<. c #5C48BF",
"1. c #5C49C0",
"2. c #5F4AC3",
"3. c #604DC5",
"4. c #6351C1",
"5. c #6551CD",
"6. c #6753CF",
"7. c #6956CF",
"8. c #7867D1",
"9. c #7A67D6",
"0. c #7660DE",
"q. c #7961E7",
"w. c #7963E7",
"e. c #7E65EB",
"r. c #7F69EE",
"t. c #957D83",
"y. c #876FAF",
"u. c #8777A9",
"i. c #937DB6",
"p. c #9076C4",
"a. c #9179D0",
"s. c #8B71EC",
"d. c #977EE3",
"f. c #8D72F6",
"g. c #9177F5",
"h. c #9176F8",
"j. c #997CFB",
"k. c #A18997",
"l. c #A3909D",
"z. c #958EA2",
"x. c #9A80B4",
"c. c #A88FA5",
"v. c #B293A7",
"b. c #AA99B7",
"n. c #A89BB8",
"m. c #AA9ABF",
"M. c #B4A5B8",
"N. c #C1B4B2",
"B. c #9D83C2",
"V. c #9C87C0",
"C. c #B197EC",
"Z. c #BF9FEB",
"A. c #A68AF2",
"S. c #AA8BFF",
"D. c #AD8EFF",
"F. c #B998FF",
"G. c #CFB1D9",
"H. c #CBABE1",
"J. c #CAA8E8",
"K. c #C5A3FF",
"L. c #CAA8FF",
"P. c #D3B1FD",
"I. c #E3BEFF",
"U. c #E8C2FF",
"Y. c None",
/* pixels */
"Y.Y.Y.Y.Y.Y.Y.r u Y.Y.Y.Y.Y.Y.Y.",
"Y.Y.Y.Y.h , < 8 N I { =.Y.Y.Y.Y.",
"Y.Y.Y.q < s D X.,.4.8.r.w.Y.Y.Y.",
"Y.Y.j 2 v [ >.q.i.A.a.@.9.7.Y.Y.",
"Y.Y.1 z ] 2.h.C.( v.Z.p.- :.| Y.",
"Y.e 5 F -.f.L.k.~ / H.B.> A m Y.",
"Y.t x } 0.F.G.^ ! ~ t.y.* V s Y.",
"Y.3 n  .d.P.' Q b.) ` u.& Y a Y.",
"Y.4 M E &.c.~ _ N.l.M.$ O.U 9 Y.",
"Y.f J ; $.V.m.n.z.W X   C L 6 Y.",
"Y.0 P *.:   O = R x.%.  o b d Y.",
"Y.Y.H #.@ + J.U.I.K.s.# . % Z Y.",
"Y.Y.k ..6.g.D.S.j.e.<.T 7 y Y.Y.",
"Y.Y.Y.l +.1.5.3.;.o.G s i Y.Y.Y.",
"Y.Y.Y.Y.Y.S K B c p w g Y.Y.Y.Y.",
"Y.Y.Y.Y.Y.Y.Y.Y.Y.Y.Y.Y.Y.Y.Y.Y."
};
